PathFileType	4	(X/Y/Z)	s05c0102.trc
DataRate	CameraRate	NumFrames	NumMarkers	Units	OrigDataRate	OrigDataStartFrame	OrigNumFrames
200	200	4	50	mm	200	1250	2000
Frame#	Time	racr			lacr			c7			jug			rlel			rdr			llel			ldr			s2			lic			ric			lasi			rasi			rpsi			lpsi			rgt			lgt			rth1			rth2			rth3			rth4			rlfc			rmfc			rsh1			rsh2			rsh3			rsh4			rlmal			rmmal			rcal			rtoe			rmt5			lth1			lth2			lth4			lth3			llfc			lmfc			lsh1			lsh2			lsh3			lsh4			llmal			lmmal			lcal			ltoe			lmt5			SBIKE			LBIKE			RBIKE			
		X1	Y1	Z1	X2	Y2	Z2	X3	Y3	Z3	X4	Y4	Z4	X5	Y5	Z5	X6	Y6	Z6	X7	Y7	Z7	X8	Y8	Z8	X9	Y9	Z9	X10	Y10	Z10	X11	Y11	Z11	X12	Y12	Z12	X13	Y13	Z13	X14	Y14	Z14	X15	Y15	Z15	X16	Y16	Z16	X17	Y17	Z17	X18	Y18	Z18	X19	Y19	Z19	X20	Y20	Z20	X21	Y21	Z21	X22	Y22	Z22	X23	Y23	Z23	X24	Y24	Z24	X25	Y25	Z25	X26	Y26	Z26	X27	Y27	Z27	X28	Y28	Z28	X29	Y29	Z29	X30	Y30	Z30	X31	Y31	Z31	X32	Y32	Z32	X33	Y33	Z33	X34	Y34	Z34	X35	Y35	Z35	X36	Y36	Z36	X37	Y37	Z37	X38	Y38	Z38	X39	Y39	Z39	X40	Y40	Z40	X41	Y41	Z41	X42	Y42	Z42	X43	Y43	Z43	X44	Y44	Z44	X45	Y45	Z45	X46	Y46	Z46	X47	Y47	Z47	X48	Y48	Z48	X49	Y49	Z49	X50	Y50	Z50	
1250	6.2500	474.389552	1264.363487	-175.862428	472.963255	1271.437108	-424.453899	463.304841	1332.897834	-303.032569	394.004386	1188.929338	-299.025404	501.887676	1051.635938	-0.156535	689.655295	920.358496	-89.075597	461.330913	1036.313232	-591.749393	673.471856	926.583370	-483.676806	-110.509630	1171.682038	-297.041441	34.332533	1178.248124	-442.514226	30.332406	1199.804197	-157.607519	82.248067	1124.723874	-404.756131	79.251553	1142.704682	-183.599758	-79.398500	1221.254640	-261.455129	-73.491847	1218.724375	-346.511570	6.117356	1088.176789	-120.927986	-32.965426	1066.290548	-458.228820	110.473489	1041.639438	-111.725511	199.329371	1029.551788	-111.064906	268.197145	972.945291	-109.996423	212.201830	1059.556069	-128.675542	389.256700	886.910137	-135.121929	373.796918	874.256816	-245.238655	301.684282	825.276915	-105.414028	257.154458	749.280149	-112.704677	183.898434	704.201789	-113.217387	279.692870	728.641718	-135.924040	96.156767	603.468108	-114.110337	121.801443	616.582554	-194.042223	25.123627	630.705790	-158.056401	199.469860	390.962804	-162.449547	120.561118	453.873814	-94.256489	48.877146	941.232577	-475.442584	117.012514	888.992752	-471.447942	146.784236	909.812623	-460.940314	149.569697	804.558948	-466.040761	224.623900	682.711647	-431.530754	206.903171	668.945045	-327.098086	191.123615	560.283483	-461.140798	205.088421	474.919016	-449.241072	174.141652	391.722855	-449.698144	235.045985	474.848848	-425.257428	171.691983	271.794227	-442.568370	196.365994	307.338392	-371.469157	112.650014	230.414375	-400.845607	407.334283	215.548222	-401.814440	300.756022	187.128462	-466.390664	-219.799727	910.819930	-276.200579	-53.324631	79.024166	-475.166040	-53.384355	79.233899	-77.512517	
1251	6.2550	474.354992	1265.265500	-175.554457	473.538259	1272.014260	-423.894348	463.572963	1333.406728	-302.728876	394.379039	1189.399101	-298.564837	501.886689	1052.330041	-0.542011	689.656809	921.035956	-89.281489	463.358640	1037.320518	-591.864434	674.673712	925.924460	-483.756017	-109.626191	1172.858838	-299.224056	35.607133	1178.521533	-443.360599	29.831465	1201.587811	-158.010528	83.085031	1124.780626	-405.112901	79.092579	1144.629593	-184.333155	-79.225237	1222.378048	-263.296055	-72.659655	1219.455516	-348.296027	6.019753	1091.810723	-121.515786	-32.749099	1066.583287	-458.634338	110.536645	1046.631302	-112.098173	199.577668	1035.930204	-111.929323	269.302428	980.673594	-110.263241	211.871065	1065.964274	-130.119275	392.743522	896.070845	-137.053633	377.669609	883.086258	-246.852473	305.213720	833.680673	-106.429987	261.146214	757.426211	-113.492296	188.213379	711.888592	-113.804198	283.797885	736.841259	-136.725962	101.151731	610.434917	-114.678704	126.214219	624.109991	-195.000412	29.351676	636.348715	-158.505401	210.193489	401.379246	-161.259910	128.937664	461.678982	-94.440139	46.059606	940.539332	-476.175309	112.951638	886.577234	-472.408039	143.208033	906.648716	-462.325434	143.307878	801.449252	-467.053816	216.659787	678.733755	-432.668459	198.894116	665.102958	-327.712046	183.302636	556.234373	-462.343747	197.411266	470.849717	-450.358999	166.649469	387.620604	-451.008716	227.298907	470.903278	-426.295747	164.746663	267.732534	-443.446772	188.728733	302.159341	-372.138122	105.288983	227.261654	-401.961227	399.681969	207.324162	-401.103861	293.125699	180.597818	-466.380879	-219.757927	910.841857	-276.300920	-53.323060	79.050902	-475.172835	-53.383608	79.293624	-77.512364	
1252	6.2600	474.320807	1266.116362	-175.124766	473.917908	1272.378830	-423.288780	463.812522	1334.014677	-302.451115	394.494376	1190.080050	-298.103896	501.860814	1053.047531	-0.962204	689.636107	921.773674	-89.455523	465.389575	1038.311933	-592.132105	675.926147	925.268708	-483.892483	-109.149023	1173.886571	-300.696513	36.788286	1178.852601	-444.122113	28.967281	1203.107890	-159.439235	83.747883	1124.947154	-405.456660	78.829091	1146.534808	-184.917651	-78.936713	1223.845703	-265.044662	-72.228647	1220.739980	-350.031425	5.829279	1095.188609	-121.977050	-32.804609	1067.122272	-458.935702	110.543710	1051.301414	-112.468768	199.683510	1042.060300	-112.897873	269.799066	988.495194	-110.303438	211.371589	1072.049822	-131.626088	395.353912	904.904999	-138.107164	380.261381	891.571838	-247.560468	308.655061	841.916343	-107.603294	265.165858	765.127017	-114.463373	192.687847	718.882829	-114.640189	287.921185	744.923135	-137.689632	106.378292	616.694931	-115.379981	131.007932	630.729849	-195.657534	33.903828	641.263767	-159.002573	220.037957	410.416959	-161.690095	137.175955	468.712252	-94.663364	43.295158	940.511141	-476.871210	108.974683	885.026602	-473.681894	139.649049	904.528280	-463.699323	137.407239	799.322251	-468.150820	208.917897	675.336885	-433.859787	190.859922	661.809575	-328.666764	175.698564	552.809581	-463.501853	189.809218	467.516456	-451.442663	159.137918	384.138532	-452.187011	219.622178	467.467788	-427.259473	157.661496	264.209962	-444.203404	180.917535	297.584835	-372.688204	97.734009	224.760550	-402.876792	391.669052	199.547432	-400.614226	284.974450	174.588076	-466.386563	-220.098948	910.951967	-275.843131	-53.334598	79.084886	-475.196081	-53.393003	79.294116	-77.522203	
1253	6.2650	474.259451	1267.043442	-174.752205	474.248199	1272.607904	-422.662673	463.987073	1334.464544	-302.224262	394.645606	1190.560835	-297.497945	501.781161	1053.718931	-1.306775	689.541068	922.563045	-89.638273	467.348862	1039.191832	-592.435840	677.066720	924.831719	-484.032949	-109.449847	1175.036771	-301.566572	37.610843	1179.193388	-444.684109	28.308580	1204.692577	-160.336589	84.243733	1125.200692	-405.710999	78.409602	1148.189966	-185.517001	-79.165745	1224.907382	-265.794325	-71.594674	1221.526846	-350.702499	5.467829	1098.362531	-122.436966	-33.068042	1067.870716	-459.156814	110.568871	1055.711958	-112.965169	199.707832	1047.868918	-113.994043	270.683593	995.524853	-111.152856	210.744563	1077.698360	-133.305617	397.676762	913.673773	-139.380295	382.607663	899.798017	-248.568555	311.949595	849.759876	-108.948295	269.205160	772.559633	-115.642964	197.153324	725.687346	-115.442357	292.079404	752.681045	-138.784719	111.881385	622.308075	-116.077780	136.611187	636.797430	-196.322306	39.041898	645.340506	-159.107910	229.375848	418.028361	-162.499895	145.328597	474.974665	-94.994479	40.683371	941.207091	-477.545211	105.305232	884.460888	-474.895319	136.356570	903.247772	-464.827156	132.083420	798.130317	-469.476006	201.693485	672.550123	-435.020489	183.101454	658.948887	-330.214964	168.255309	550.078568	-464.569118	182.260853	464.711975	-452.427008	151.602160	381.407497	-453.266307	212.081442	464.732212	-428.175571	150.215150	261.386088	-444.871243	173.007189	293.652345	-373.109773	89.914619	222.983871	-403.496379	383.269009	192.350232	-400.289794	276.407980	169.138051	-466.418101	-220.105555	910.949889	-275.868825	-53.347260	79.107903	-475.190447	-53.376166	79.315017	-77.527596	
